<mxfile host="app.diagrams.net" modified="2021-08-16T17:08:04.280Z" agent="5.0 (Windows NT 10.0; Win64; x64) AppleWebKit/537.36 (KHTML, like Gecko) Chrome/92.0.4515.131 Safari/537.36" etag="z2dCPuXtDCe5JatrKE_i" version="14.9.4" type="github">
  <diagram id="br0OoGywdPqGYpD_BIBk" name="Page-1">
    <mxGraphModel dx="929" dy="633" grid="1" gridSize="10" guides="1" tooltips="1" connect="1" arrows="1" fold="1" page="1" pageScale="1" pageWidth="850" pageHeight="1100" math="0" shadow="0">
      <root>
        <mxCell id="0" />
        <mxCell id="1" parent="0" />
        <mxCell id="O4VPbmuhPtiqv018MX9I-1" value="" style="rounded=0;whiteSpace=wrap;html=1;" vertex="1" parent="1">
          <mxGeometry x="210" y="390" width="320" height="250" as="geometry" />
        </mxCell>
        <mxCell id="O4VPbmuhPtiqv018MX9I-8" value="" style="edgeStyle=orthogonalEdgeStyle;rounded=0;orthogonalLoop=1;jettySize=auto;html=1;" edge="1" parent="1" source="O4VPbmuhPtiqv018MX9I-2" target="O4VPbmuhPtiqv018MX9I-3">
          <mxGeometry relative="1" as="geometry" />
        </mxCell>
        <mxCell id="O4VPbmuhPtiqv018MX9I-11" style="edgeStyle=orthogonalEdgeStyle;rounded=0;orthogonalLoop=1;jettySize=auto;html=1;exitX=0.5;exitY=0;exitDx=0;exitDy=0;" edge="1" parent="1" source="O4VPbmuhPtiqv018MX9I-2" target="O4VPbmuhPtiqv018MX9I-10">
          <mxGeometry relative="1" as="geometry" />
        </mxCell>
        <mxCell id="O4VPbmuhPtiqv018MX9I-2" value="Fluentbit sidecar" style="rounded=0;whiteSpace=wrap;html=1;" vertex="1" parent="1">
          <mxGeometry x="340" y="500" width="50" height="30" as="geometry" />
        </mxCell>
        <mxCell id="O4VPbmuhPtiqv018MX9I-3" value="Agent" style="rounded=0;whiteSpace=wrap;html=1;" vertex="1" parent="1">
          <mxGeometry x="230" y="470" width="80" height="80" as="geometry" />
        </mxCell>
        <mxCell id="O4VPbmuhPtiqv018MX9I-4" value="Azure Onboarded Provisioned Cluster" style="text;html=1;strokeColor=none;fillColor=none;align=center;verticalAlign=middle;whiteSpace=wrap;rounded=0;" vertex="1" parent="1">
          <mxGeometry x="300" y="610" width="200" height="20" as="geometry" />
        </mxCell>
        <mxCell id="O4VPbmuhPtiqv018MX9I-7" value="" style="endArrow=none;dashed=1;html=1;dashPattern=1 3;strokeWidth=2;" edge="1" parent="1">
          <mxGeometry width="50" height="50" relative="1" as="geometry">
            <mxPoint x="100" y="350" as="sourcePoint" />
            <mxPoint x="830" y="350" as="targetPoint" />
            <Array as="points">
              <mxPoint x="380" y="350" />
            </Array>
          </mxGeometry>
        </mxCell>
        <mxCell id="O4VPbmuhPtiqv018MX9I-17" style="edgeStyle=orthogonalEdgeStyle;rounded=0;orthogonalLoop=1;jettySize=auto;html=1;exitX=1;exitY=0.5;exitDx=0;exitDy=0;" edge="1" parent="1" source="O4VPbmuhPtiqv018MX9I-10" target="O4VPbmuhPtiqv018MX9I-16">
          <mxGeometry relative="1" as="geometry" />
        </mxCell>
        <mxCell id="O4VPbmuhPtiqv018MX9I-10" value="Data plane Post Log API" style="rounded=0;whiteSpace=wrap;html=1;" vertex="1" parent="1">
          <mxGeometry x="200" y="250" width="120" height="60" as="geometry" />
        </mxCell>
        <mxCell id="O4VPbmuhPtiqv018MX9I-20" value="" style="edgeStyle=orthogonalEdgeStyle;rounded=0;orthogonalLoop=1;jettySize=auto;html=1;" edge="1" parent="1" source="O4VPbmuhPtiqv018MX9I-15" target="O4VPbmuhPtiqv018MX9I-19">
          <mxGeometry relative="1" as="geometry" />
        </mxCell>
        <mxCell id="O4VPbmuhPtiqv018MX9I-22" value="" style="edgeStyle=orthogonalEdgeStyle;rounded=0;orthogonalLoop=1;jettySize=auto;html=1;" edge="1" parent="1" source="O4VPbmuhPtiqv018MX9I-15" target="O4VPbmuhPtiqv018MX9I-16">
          <mxGeometry relative="1" as="geometry" />
        </mxCell>
        <mxCell id="O4VPbmuhPtiqv018MX9I-15" value="FluentD" style="rounded=0;whiteSpace=wrap;html=1;" vertex="1" parent="1">
          <mxGeometry x="430" y="130" width="120" height="60" as="geometry" />
        </mxCell>
        <mxCell id="O4VPbmuhPtiqv018MX9I-16" value="Console" style="rounded=0;whiteSpace=wrap;html=1;" vertex="1" parent="1">
          <mxGeometry x="460" y="250" width="120" height="60" as="geometry" />
        </mxCell>
        <mxCell id="O4VPbmuhPtiqv018MX9I-24" value="" style="edgeStyle=orthogonalEdgeStyle;rounded=0;orthogonalLoop=1;jettySize=auto;html=1;" edge="1" parent="1" source="O4VPbmuhPtiqv018MX9I-19" target="O4VPbmuhPtiqv018MX9I-23">
          <mxGeometry relative="1" as="geometry" />
        </mxCell>
        <mxCell id="O4VPbmuhPtiqv018MX9I-19" value="MDSD agent(geneva agent)" style="rounded=0;whiteSpace=wrap;html=1;" vertex="1" parent="1">
          <mxGeometry x="610" y="130" width="120" height="60" as="geometry" />
        </mxCell>
        <mxCell id="O4VPbmuhPtiqv018MX9I-21" value="Pushes the logs to Console" style="text;html=1;strokeColor=none;fillColor=none;align=center;verticalAlign=middle;whiteSpace=wrap;rounded=0;" vertex="1" parent="1">
          <mxGeometry x="350" y="290" width="70" height="20" as="geometry" />
        </mxCell>
        <mxCell id="O4VPbmuhPtiqv018MX9I-23" value="Geneva" style="rounded=0;whiteSpace=wrap;html=1;" vertex="1" parent="1">
          <mxGeometry x="610" y="40" width="120" height="60" as="geometry" />
        </mxCell>
        <mxCell id="O4VPbmuhPtiqv018MX9I-25" value="Azure" style="text;html=1;strokeColor=none;fillColor=none;align=center;verticalAlign=middle;whiteSpace=wrap;rounded=0;" vertex="1" parent="1">
          <mxGeometry x="662.5" y="320" width="70" height="20" as="geometry" />
        </mxCell>
        <mxCell id="O4VPbmuhPtiqv018MX9I-29" value="On prem Customer Datacenter" style="text;html=1;strokeColor=none;fillColor=none;align=center;verticalAlign=middle;whiteSpace=wrap;rounded=0;" vertex="1" parent="1">
          <mxGeometry x="645" y="380" width="105" height="20" as="geometry" />
        </mxCell>
      </root>
    </mxGraphModel>
  </diagram>
</mxfile>
